<svg xmlns="http://www.w3.org/2000/svg" xmlns:xlink="http://www.w3.org/1999/xlink" width="215" height="83" viewBox="0 0 215 83">
    <defs>
        <path id="a" d="M.087.38h43.547v42.086H.087z"/>
        <path id="c" d="M0 .433h23.901v33.04H0z"/>
    </defs>
    <g fill="none" fill-rule="evenodd">
        <g transform="translate(170.897 -.38)">
            <mask id="b" fill="#fff">
                <use xlink:href="#a"/>
            </mask>
            <path fill="#3999DD" d="M24.97 41.404a4.978 4.978 0 0 0-.483-.321c5.62-22.171 5.347-20.938 5.347-21.17 0-2.524 2.505-4.579 5.583-4.579 3.011 0 5.456 1.968 5.564 4.415-.407 1.066.156-.046-16.01 21.655m-5.687 3.43c0-3.045 5.146-3.041 5.146 0 0 3.044-5.146 3.042-5.146 0m-.542-3.43C2.572 19.698 3.14 20.815 2.732 19.75c.108-2.448 2.554-4.416 5.564-4.416 3.08 0 5.585 2.055 5.585 4.58 0 .227-.297-1.113 5.256 21.212-.14.083-.264.183-.395.278m8.689-21.573L22.2 40.425c-.116-.007-.226-.031-.344-.031-.15 0-.293.028-.442.04l-5.131-20.6c.049-2.406 2.496-4.5 5.573-4.5 3.045 0 5.52 2.012 5.575 4.497m12.975-5.152c-3.723-2.522-9.224-1.75-11.77 1.713-3.131-4.26-10.43-4.26-13.56 0-2.545-3.463-8.046-4.236-11.77-1.713 5.64-16.162 31.453-16.185 37.1 0m3.184 3.265C42.47 7.932 33.125.381 21.856.381 10.59.38 1.245 7.93.123 17.944c-.459 4.104 3.406 5.738 17.113 25.294-1.291 2.975 1.213 6.037 4.62 6.037 3.404 0 5.914-3.057 4.62-6.037C42.463 21.72 43.95 21.166 43.59 17.944" mask="url(#b)"/>
        </g>
        <path fill="#3999DD" fill-rule="nonzero" d="M198.255 61.816c2.32 0 4.201-1.863 4.201-4.161V46.544c0-2.299-1.88-4.161-4.201-4.161h-11.22c-2.32 0-4.201 1.863-4.201 4.16v11.112c0 2.298 1.881 4.161 4.202 4.161h11.219zm0 2.043h-11.22c-3.46 0-6.264-2.778-6.264-6.204V46.544c0-3.426 2.805-6.204 6.265-6.204h11.219c3.46 0 6.264 2.777 6.264 6.204v11.11c0 3.427-2.804 6.205-6.264 6.205z"/>
        <path fill="#3999DD" d="M188.753 50.222a.696.696 0 0 1 .32-.08.684.684 0 0 1 .6.39.62.62 0 0 1 .058.274c0 .11-.027.217-.08.323a.542.542 0 0 1-.253.243l-1.898.974 1.874.992a.561.561 0 0 1 .261.237.687.687 0 0 1 .03.615.724.724 0 0 1-.15.21.636.636 0 0 1-.436.18 1.263 1.263 0 0 1-.16-.022.494.494 0 0 1-.153-.058l-2.914-1.552a.988.988 0 0 1-.224-.127c-.014-.013-.017-.019-.01-.019a.694.694 0 0 1-.203-.48.636.636 0 0 1 .358-.566l2.98-1.534zM192.925 48.78a.787.787 0 0 1 .307-.414.836.836 0 0 1 .821-.08.85.85 0 0 1 .43.485c.038.107.058.22.058.337 0 .045-.004.09-.012.134-.008.045-.018.09-.031.134l-2.034 6.22a.796.796 0 0 1-.307.416.829.829 0 0 1-.815.085.868.868 0 0 1-.433-.446.787.787 0 0 1-.018-.555l2.034-6.317zM199.647 52.82a.5.5 0 0 1-.215.128L196.52 54.5a.496.496 0 0 1-.153.058.863.863 0 0 1-.16.016.65.65 0 0 1-.645-.658c0-.122.03-.236.091-.341a.578.578 0 0 1 .264-.237l1.87-.992-1.894-.974a.601.601 0 0 1-.255-.244.657.657 0 0 1-.089-.328c0-.097.02-.186.058-.265a.696.696 0 0 1 .606-.393c.11 0 .217.027.32.08l2.986 1.534a.713.713 0 0 1 .264.249.615.615 0 0 1 .028.593.648.648 0 0 1-.163.222"/>
        <g>
            <g transform="translate(0 40.44)">
                <mask id="d" fill="#fff">
                    <use xlink:href="#c"/>
                </mask>
                <path fill="#3999DD" d="M11.95 12.405c-1.29 0-2.515.246-3.642.73a9.447 9.447 0 0 0-2.94 1.968 9.36 9.36 0 0 0-1.986 2.913 8.875 8.875 0 0 0-.736 3.584c0 1.26.247 2.466.736 3.584a9.336 9.336 0 0 0 4.926 4.907 9.171 9.171 0 0 0 3.642.73 9.25 9.25 0 0 0 3.67-.73 9.338 9.338 0 0 0 2.943-1.986 9.312 9.312 0 0 0 1.972-2.928c.478-1.116.72-2.32.72-3.577a9.008 9.008 0 0 0-.721-3.578 9.137 9.137 0 0 0-1.976-2.919 9.445 9.445 0 0 0-2.938-1.968 9.243 9.243 0 0 0-3.67-.73m0 21.068c-1.64 0-3.196-.313-4.628-.932a12.416 12.416 0 0 1-3.81-2.549A11.984 11.984 0 0 1 .94 26.216 11.491 11.491 0 0 1 0 21.6c0-1.631.317-3.184.94-4.616a12.14 12.14 0 0 1 2.576-3.791 12.283 12.283 0 0 1 3.807-2.56c1.432-.619 2.988-.933 4.628-.933.975 0 1.856.097 2.623.287.743.186 1.41.458 1.984.809.574.351 1.226.72 1.73 1.165.5.444.806.712 1.017.923.32.321.537.457.914.457.082 0 .165-.01.246-.029.462-.112.791-.504.791-.907V1.838c0-.425.123-.752.385-1.027.248-.262.534-.378.926-.378.395 0 .687.119.945.385.266.275.39.599.39 1.02v19.934a11.44 11.44 0 0 1-.963 4.538 12.086 12.086 0 0 1-2.563 3.725 12.18 12.18 0 0 1-3.79 2.519c-1.433.61-2.992.919-4.635.919" mask="url(#d)"/>
            </g>
            <path fill="#3999DD" d="M31.599 73.597c-.194 0-.372-.033-.544-.1a1.308 1.308 0 0 1-.44-.276 1.43 1.43 0 0 1-.317-.436 1.118 1.118 0 0 1-.102-.488v-9.663c0-1.699.331-3.321.986-4.82a12.758 12.758 0 0 1 2.696-3.975 12.906 12.906 0 0 1 3.987-2.689 12.063 12.063 0 0 1 4.84-.983h.134c.75 0 .99.254 1.07.337.236.25.345.555.345.962 0 .384-.12.666-.387.913-.288.264-.615.387-1.028.387h-.135c-1.343 0-2.629.265-3.82.786a10.25 10.25 0 0 0-3.12 2.114 10.054 10.054 0 0 0-2.132 3.129 9.507 9.507 0 0 0-.79 3.839v9.663c0 .399-.114.699-.359.944-.244.246-.517.356-.884.356M58.27 52.871a9.184 9.184 0 0 0-3.643.73 9.457 9.457 0 0 0-2.938 1.964 9.338 9.338 0 0 0-1.987 2.909 8.85 8.85 0 0 0-.737 3.58c0 1.26.248 2.464.737 3.579a9.319 9.319 0 0 0 4.926 4.9 9.178 9.178 0 0 0 3.642.729 9.253 9.253 0 0 0 8.583-5.636 8.976 8.976 0 0 0 .722-3.572 8.981 8.981 0 0 0-.722-3.573 9.15 9.15 0 0 0-1.976-2.916 9.44 9.44 0 0 0-2.939-1.965 9.253 9.253 0 0 0-3.668-.729m0 21.042c-1.641 0-3.198-.313-4.63-.93a12.41 12.41 0 0 1-3.809-2.548 11.979 11.979 0 0 1-2.573-3.772 11.47 11.47 0 0 1-.939-4.61c0-1.629.316-3.18.94-4.61a12.15 12.15 0 0 1 2.575-3.787 12.302 12.302 0 0 1 3.806-2.558c1.432-.618 2.99-.93 4.63-.93 1.658 0 3.23.312 4.672.931a12.072 12.072 0 0 1 3.8 2.554 12.078 12.078 0 0 1 2.55 3.786 11.6 11.6 0 0 1 .929 4.615c0 1.63-.313 3.182-.93 4.614a11.895 11.895 0 0 1-2.546 3.77 12.18 12.18 0 0 1-3.803 2.543c-1.441.618-3.013.932-4.672.932M87.309 52.845a9.241 9.241 0 0 0-3.649.73 9.392 9.392 0 0 0-2.951 1.973 9.372 9.372 0 0 0-1.983 2.916 8.921 8.921 0 0 0-.735 3.59c0 1.263.247 2.47.735 3.588a9.527 9.527 0 0 0 1.978 2.926 9.29 9.29 0 0 0 6.605 2.72 9.286 9.286 0 0 0 6.604-2.72 9.346 9.346 0 0 0 1.968-2.935c.477-1.115.72-2.32.72-3.58a9.072 9.072 0 0 0-.72-3.581 9.19 9.19 0 0 0-1.973-2.924 9.396 9.396 0 0 0-2.951-1.973 9.233 9.233 0 0 0-3.648-.73M76.695 82.758c-.385 0-.693-.127-.971-.402-.277-.273-.406-.593-.406-1.004V62.037c0-1.63.316-3.182.94-4.613a12.154 12.154 0 0 1 2.58-3.792 12.261 12.261 0 0 1 3.82-2.559 11.715 11.715 0 0 1 4.65-.933c1.644 0 3.208.315 4.65.934 1.451.624 2.731 1.485 3.806 2.56a12.093 12.093 0 0 1 2.553 3.795 11.65 11.65 0 0 1 .93 4.625c0 1.634-.313 3.19-.93 4.625a11.973 11.973 0 0 1-2.547 3.78 12.215 12.215 0 0 1-3.804 2.547 11.7 11.7 0 0 1-4.643.934c-1.482 0-2.881-.242-4.16-.719a11.837 11.837 0 0 1-3.498-2.047 1.037 1.037 0 0 0-1.102-.15c-.365.168-.6.53-.6.93v9.399c0 .422-.118.753-.373 1.042-.149.169-.385.363-.895.363M116.055 73.913c-1.665 0-3.241-.302-4.685-.898a11.909 11.909 0 0 1-3.802-2.477 11.761 11.761 0 0 1-2.559-3.719c-.618-1.411-.932-2.961-.932-4.608V43.863c0-.18.035-.348.104-.514a1.398 1.398 0 0 1 .735-.741c.151-.065.31-.098.485-.098.18 0 .355.035.533.108.18.074.328.169.455.29.129.124.228.267.307.438.072.16.107.328.107.517v5.175c0 .565.462 1.023 1.032 1.023h10.56c.377 0 .675.125.94.393.27.274.397.579.397.96 0 .356-.111.62-.361.857-.26.248-.568.363-.975.363h-10.561c-.57 0-1.032.458-1.032 1.024v8.607c0 1.26.243 2.46.723 3.561a9.04 9.04 0 0 0 1.965 2.87 9.128 9.128 0 0 0 2.936 1.92 9.445 9.445 0 0 0 3.628.698c1.115 0 2.185-.163 3.18-.486a7.691 7.691 0 0 0 2.843-1.688c.376-.35.727-.518 1.08-.518.131 0 .259.026.392.08.136.056.258.137.372.244.104.098.184.214.247.356.057.131.086.283.086.46 0 .22-.049.44-.148.677-.1.24-.231.437-.401.606a10.208 10.208 0 0 1-3.427 2.143c-1.286.482-2.707.725-4.224.725M139.52 52.581a9.242 9.242 0 0 0-3.294.583 9.153 9.153 0 0 0-2.727 1.607 9.034 9.034 0 0 0-1.98 2.396c-.517.908-.869 1.207-1.049 2.234-.052.297.031.603.227.833.196.232.485.366.79.366h16.174c.303 0 .591-.134.787-.363.197-.23.28-.533.23-.83-.178-1.07-.55-1.396-1.102-2.314a9.416 9.416 0 0 0-2.032-2.372 9.257 9.257 0 0 0-2.753-1.575 9.475 9.475 0 0 0-3.27-.565m-.08 21.332c-1.643 0-3.21-.314-4.66-.933a12.298 12.298 0 0 1-3.831-2.544 11.959 11.959 0 0 1-2.573-3.773c-.623-1.429-.94-2.98-.94-4.61 0-1.646.317-3.206.94-4.636a11.96 11.96 0 0 1 2.573-3.772 12.316 12.316 0 0 1 3.83-2.545c1.451-.62 3.018-.933 4.66-.933 1.626 0 3.182.31 4.624.92a12.158 12.158 0 0 1 3.815 2.532 12.206 12.206 0 0 1 2.59 3.764c.63 1.422.959 2.961.976 4.575 0 .354-.104.62-.336.85-.144.144-.397.333-.92.333h-18.57c-.31 0-.606.14-.802.381-.196.24-.272.556-.206.859a8.84 8.84 0 0 0 1.143 2.819 9.112 9.112 0 0 0 1.978 2.245 9.13 9.13 0 0 0 2.624 1.488c.97.359 2.007.54 3.085.54 1.03 0 1.87-.095 2.566-.29a8.717 8.717 0 0 0 2.054-.881c.325-.184.627-.281.887-.281.163 0 .308.031.442.096a1.44 1.44 0 0 1 .732.775c.073.176.109.351.109.534 0 .295-.106.534-.344.775-.327.331-.79.624-1.378.869-.641.266-1.405.475-2.273.62a17.01 17.01 0 0 1-2.795.223M158.025 73.597c-.393 0-.703-.12-.973-.377-.261-.246-.377-.523-.377-.896v-30.02a1.168 1.168 0 0 1 .374-.868c.139-.126.296-.226.478-.304.156-.068.319-.1.498-.1.398 0 .7.116.95.368.257.26.372.538.372.904l-.026 16.368a1.023 1.023 0 0 0 1.032 1.026c.255 0 .506-.095.701-.274l9.258-8.527a1.16 1.16 0 0 1 .402-.248c.164-.058.326-.087.493-.087.176 0 .337.033.49.1.167.072.307.166.428.286.13.13.233.276.316.452.068.144.101.296.101.463 0 .366-.128.647-.414.912l-8.487 7.815a1.018 1.018 0 0 0-.004 1.497l10.003 9.32c.214.203.312.447.312.784 0 .18-.034.348-.104.514a1.317 1.317 0 0 1-.284.426c-.133.13-.281.235-.452.317-.135.064-.28.096-.442.096-.181 0-.362-.035-.556-.106a1.284 1.284 0 0 1-.47-.307l-10.584-9.896a1.035 1.035 0 0 0-1.739.746v8.343c0 .377-.114.655-.37.902-.265.257-.55.37-.926.37"/>
        </g>
    </g>
</svg>
