<svg id="Capa_1" data-name="Capa 1" xmlns="http://www.w3.org/2000/svg" viewBox="0 0 32 32"><defs><style>.cls-1{stroke:#fff;stroke-miterlimit:10;stroke-width:2px;}.cls-2{fill:#fff;}</style></defs><title>Mesa de trabajo 1Addon</title><rect class="cls-1" x="1" y="1" width="30" height="30" rx="5.75" ry="5.75"/><path class="cls-2" d="M27.26,9.64a13.18,13.18,0,0,0-4.73-4.85,12.81,12.81,0,0,0-13.06,0A13.35,13.35,0,0,0,3,16.33a13.19,13.19,0,0,0,2.48,7.83A12.73,12.73,0,0,0,11.89,29a.72.72,0,0,0,.67-.12.67.67,0,0,0,.22-.52s0-.34,0-.93V25.85l-.39.07a4.31,4.31,0,0,1-.94.06,6.14,6.14,0,0,1-1.18-.12,2.53,2.53,0,0,1-1.13-.52,2.23,2.23,0,0,1-.75-1.07l-.17-.4A4.36,4.36,0,0,0,7.68,23a2.11,2.11,0,0,0-.74-.66l-.11-.09A.87.87,0,0,1,6.61,22a1.11,1.11,0,0,1-.16-.24.15.15,0,0,1,.09-.2A1.08,1.08,0,0,1,7,21.51l.34.06A2.32,2.32,0,0,1,8.2,22a2.76,2.76,0,0,1,.83.9A3,3,0,0,0,10,24a1.91,1.91,0,0,0,1.1.37,5.34,5.34,0,0,0,1-.08A3.27,3.27,0,0,0,12.8,24a2.82,2.82,0,0,1,.83-1.78,13,13,0,0,1-1.74-.31,7.1,7.1,0,0,1-1.59-.68,4.65,4.65,0,0,1-1.36-1.16,5.68,5.68,0,0,1-.89-1.83,8.91,8.91,0,0,1-.34-2.6A5.12,5.12,0,0,1,9,12.06a4.79,4.79,0,0,1,.12-3.54,2.29,2.29,0,0,1,1.46.23A9.58,9.58,0,0,1,12,9.42c.3.18.54.34.72.47a12,12,0,0,1,6.5,0l.64-.42a8.72,8.72,0,0,1,1.56-.76,2.14,2.14,0,0,1,1.37-.19A4.75,4.75,0,0,1,23,12.06a5.12,5.12,0,0,1,1.33,3.57A9,9,0,0,1,24,18.24a5.24,5.24,0,0,1-.9,1.82,4.7,4.7,0,0,1-1.37,1.16,7.1,7.1,0,0,1-1.59.68,12.7,12.7,0,0,1-1.74.31,3.12,3.12,0,0,1,.88,2.46v3.66a.7.7,0,0,0,.21.52.72.72,0,0,0,.67.12,12.73,12.73,0,0,0,6.41-4.81A13.2,13.2,0,0,0,29,16.32,13.29,13.29,0,0,0,27.26,9.64Z"/></svg>