<svg id="Capa_1" data-name="Capa 1" xmlns="http://www.w3.org/2000/svg" viewBox="0 0 32 32"><defs><style>.cls-1{stroke:#fff;stroke-miterlimit:10;stroke-width:2px;}.cls-2{fill:#fff;}</style></defs><title>Mesa de trabajo 1Addon</title><rect class="cls-1" x="1" y="1" width="30" height="30" rx="6.98" ry="6.98"/><path class="cls-2" d="M29,7.84a10.74,10.74,0,0,1-3.15.87,5.53,5.53,0,0,0,2.41-3A11.1,11.1,0,0,1,24.77,7a5.48,5.48,0,0,0-9.49,3.75A5.7,5.7,0,0,0,15.42,12,15.56,15.56,0,0,1,4.12,6.28,5.37,5.37,0,0,0,3.37,9,5.48,5.48,0,0,0,5.81,13.6a5.51,5.51,0,0,1-2.48-.69V13a5.48,5.48,0,0,0,4.4,5.38,5.7,5.7,0,0,1-1.45.19,5.07,5.07,0,0,1-1-.1,5.49,5.49,0,0,0,5.13,3.81,11,11,0,0,1-6.82,2.35,11.38,11.38,0,0,1-1.31-.08A15.5,15.5,0,0,0,10.66,27,15.5,15.5,0,0,0,26.27,11.39v-.71A11,11,0,0,0,29,7.84Z"/></svg>