<svg id="Capa_1" data-name="Capa 1" xmlns="http://www.w3.org/2000/svg" viewBox="0 0 32 32"><defs><style>.cls-1{stroke:#fff;stroke-miterlimit:10;stroke-width:2px;}.cls-2{fill:#fff;}</style></defs><title>Mesa de trabajo 1Addon</title><rect class="cls-1" x="1" y="1" width="30" height="30" rx="5.75" ry="5.75"/><path class="cls-2" d="M4.06,28l1.68-6.16a11.87,11.87,0,1,1,4.62,4.51Zm6.59-3.81a9.82,9.82,0,1,0-2.74-2.66l-1,3.64ZM22,18.73c-.07-.12-.27-.2-.57-.35s-1.76-.87-2-1-.47-.14-.67.15-.77,1-.94,1.17-.35.22-.64.07a8,8,0,0,1-2.39-1.47,9,9,0,0,1-1.66-2.06c-.17-.3,0-.46.13-.61a6.26,6.26,0,0,0,.45-.52,1.9,1.9,0,0,0,.3-.49.53.53,0,0,0,0-.52c-.07-.15-.66-1.61-.91-2.21s-.49-.5-.67-.51h-.57a1.07,1.07,0,0,0-.79.37,3.36,3.36,0,0,0-1,2.48,5.73,5.73,0,0,0,1.21,3.07,13.3,13.3,0,0,0,5.08,4.49,17.33,17.33,0,0,0,1.69.63,4.25,4.25,0,0,0,1.87.12,3.08,3.08,0,0,0,2-1.42A2.39,2.39,0,0,0,22,18.73Z"/></svg>